<svg xmlns="http://www.w3.org/2000/svg" xmlns:xlink="http://www.w3.org/1999/xlink" version="1.1" x="0px" y="0px" viewBox="0 0 100 125" style="enable-background:new 0 0 100 100;" xml:space="preserve"><path d="M68.4,20.7H31.6c-2.1,0-3.8-1.7-3.8-3.8v0c0-2.1,1.7-3.8,3.8-3.8h36.8c2.1,0,3.8,1.7,3.8,3.8v0C72.2,19,70.5,20.7,68.4,20.7  z"/><path d="M83,53.7H17.3c-2.1,0-3.8-1.7-3.8-3.8v0c0-2.1,1.7-3.8,3.8-3.8H83c2.1,0,3.8,1.7,3.8,3.8v0C86.8,52,85.1,53.7,83,53.7z"/><path d="M68.4,86.7H31.6c-2.1,0-3.8-1.7-3.8-3.8v0c0-2.1,1.7-3.8,3.8-3.8h36.8c2.1,0,3.8,1.7,3.8,3.8v0C72.2,85,70.5,86.7,68.4,86.7  z"/><text x="0" y="115" fill="#000000" font-size="5px" font-weight="bold" font-family="'Helvetica Neue', Helvetica, Arial-Unicode, Arial, Sans-serif">Created by Shiva</text><text x="0" y="120" fill="#000000" font-size="5px" font-weight="bold" font-family="'Helvetica Neue', Helvetica, Arial-Unicode, Arial, Sans-serif">from the Noun Project</text></svg>